<?xml version="1.0" encoding="utf-8" standalone="yes"?>
<!DOCTYPE svg PUBLIC "-//W3C//DTD SVG 1.1//EN" "http://www.w3.org/Graphics/SVG/1.1/DTD/svg11.dtd">
<svg style="fill:none;stroke:none;fill-rule:evenodd;clip-rule:evenodd;stroke-linecap:round;stroke-linejoin:round;stroke-miterlimit:1.5;" version="1.1" xmlns="http://www.w3.org/2000/svg" xmlns:xlink="http://www.w3.org/1999/xlink" width="565" height="554" viewBox="0 0 565 554"><style class="text-font-style fontImports" data-font-family="Roboto">@import url(https://fonts.googleapis.com/css2?family=Roboto:wght@400;700&amp;amp;display=block);</style><g id="items" style="isolation: isolate"><g id="blend" style="mix-blend-mode: normal"><g id="g-root-sy_0_cu_bar_back_1qcl3zs3yf0ua-fill" data-item-order="-18556" transform="translate(15, 187)"><g id="sy_0_cu_bar_back_1qcl3zs3yf0ua-fill-merged" stroke="none" fill="#a3a3a3" fill-opacity="1"><g><path d="M28 10 H508C508 10 526 10 526 28C526 28 526 46 508 46 H28C28 46 10 46 10 28C10 28 10 10 28 10"></path></g></g></g><g id="g-root-sy_0_cu_bar_back_1qcl3zs3yf0ua-stroke" data-item-order="-18556" transform="translate(15, 187)"><g id="sy_0_cu_bar_back_1qcl3zs3yf0ua-stroke" fill="none" stroke-linecap="round" stroke-linejoin="round" stroke-miterlimit="4" stroke="#ffffff" stroke-width="2" stroke-opacity="1"><g><path d="M 28 10L 508 10C 508 10 526 10 526 28L 526 28C 526 28 526 46 508 46L 28 46C 28 46 10 46 10 28L 10 28C 10 28 10 10 28 10"></path></g></g></g><g id="g-root-sy_0_cu_bar_back_1_1qcl3zs3yf0ub-fill" data-item-order="-18554" transform="translate(15, 307)"><g id="sy_0_cu_bar_back_1_1qcl3zs3yf0ub-fill-merged" stroke="none" fill="#a3a3a3" fill-opacity="1"><g><path d="M28 10 H508C508 10 526 10 526 28C526 28 526 46 508 46 H28C28 46 10 46 10 28C10 28 10 10 28 10"></path></g></g></g><g id="g-root-sy_0_cu_bar_back_1_1qcl3zs3yf0ub-stroke" data-item-order="-18554" transform="translate(15, 307)"><g id="sy_0_cu_bar_back_1_1qcl3zs3yf0ub-stroke" fill="none" stroke-linecap="round" stroke-linejoin="round" stroke-miterlimit="4" stroke="#ffffff" stroke-width="2" stroke-opacity="1"><g><path d="M 28 10L 508 10C 508 10 526 10 526 28L 526 28C 526 28 526 46 508 46L 28 46C 28 46 10 46 10 28L 10 28C 10 28 10 10 28 10"></path></g></g></g><g id="g-root-sy_0_cu_bar_back_2_1qcl3zs3yf0uc-fill" data-item-order="-18552" transform="translate(15, 427)"><g id="sy_0_cu_bar_back_2_1qcl3zs3yf0uc-fill-merged" stroke="none" fill="#a3a3a3" fill-opacity="1"><g><path d="M28 10 H508C508 10 526 10 526 28C526 28 526 46 508 46 H28C28 46 10 46 10 28C10 28 10 10 28 10"></path></g></g></g><g id="g-root-sy_0_cu_bar_back_2_1qcl3zs3yf0uc-stroke" data-item-order="-18552" transform="translate(15, 427)"><g id="sy_0_cu_bar_back_2_1qcl3zs3yf0uc-stroke" fill="none" stroke-linecap="round" stroke-linejoin="round" stroke-miterlimit="4" stroke="#ffffff" stroke-width="2" stroke-opacity="1"><g><path d="M 28 10L 508 10C 508 10 526 10 526 28L 526 28C 526 28 526 46 508 46L 28 46C 28 46 10 46 10 28L 10 28C 10 28 10 10 28 10"></path></g></g></g><g id="g-root-sy_1_cu_bar_1hgy3qw3yf1n2-fill" data-item-order="-18548" transform="translate(15, 187)"><g id="sy_1_cu_bar_1hgy3qw3yf1n2-fill-merged" stroke="none" fill="#e55753" fill-opacity="1"><g><path d="M28 10 H90.4C90.4 10 108.4 10 108.4 28C108.4 28 108.4 46 90.4 46 H28C28 46 10 46 10 28C10 28 10 10 28 10"></path></g></g></g><g id="g-root-sy_1_cu_bar_1hgy3qw3yf1n2-stroke" data-item-order="-18548" transform="translate(15, 187)"><g id="sy_1_cu_bar_1hgy3qw3yf1n2-stroke" fill="none" stroke-linecap="round" stroke-linejoin="round" stroke-miterlimit="4" stroke="#ffffff" stroke-width="2" stroke-opacity="1"><g><path d="M 28 10L 90.400002 10C 90.400002 10 108.400002 10 108.400002 28L 108.400002 28C 108.400002 28 108.400002 46 90.400002 46L 28 46C 28 46 10 46 10 28L 10 28C 10 28 10 10 28 10"></path></g></g></g><g id="g-root-sy_1_cu_bubble_1hgy3qw3yf1n3-fill" data-item-order="-18546" transform="translate(63.399993896484375, 231)"><g id="sy_1_cu_bubble_1hgy3qw3yf1n3-fill-merged" stroke="none" fill="#e55753" fill-opacity="1"><g><path d="M10 26C10 19.373 15.373 14 22 14 H55L59 10L63 14 H96C102.627 14 108 19.373 108 26C108 32.627 102.627 38 96 38 H22C15.373 38 10 32.627 10 26"></path></g></g></g><g id="g-root-sy_1_cu_bubble_1hgy3qw3yf1n3-stroke" data-item-order="-18546" transform="translate(63.399993896484375, 231)"><g id="sy_1_cu_bubble_1hgy3qw3yf1n3-stroke" fill="none" stroke-linecap="round" stroke-linejoin="round" stroke-miterlimit="4" stroke="#ffffff" stroke-width="2" stroke-opacity="1"><g><path d="M 10.000008 26C 10.000008 19.3726 15.372608 14 22.000008 14L 55.000008 14L 59.000008 10L 63.000008 14L 96.000008 14C 102.627408 14 108.000008 19.3726 108.000008 26L 108.000008 26C 108.000008 32.6274 102.627408 38 96.000008 38L 22.000008 38C 15.372608 38 10.000008 32.6274 10.000008 26L 10.000008 26Z"></path></g></g></g><g id="g-root-sy_2_cu_bar_1d14lmg3yf2fc-fill" data-item-order="-18542" transform="translate(15, 307)"><g id="sy_2_cu_bar_1d14lmg3yf2fc-fill-merged" stroke="none" fill="#de8431" fill-opacity="1"><g><path d="M28 10 H157.6C157.6 10 175.6 10 175.6 28C175.6 28 175.6 46 157.6 46 H28C28 46 10 46 10 28C10 28 10 10 28 10"></path></g></g></g><g id="g-root-sy_2_cu_bar_1d14lmg3yf2fc-stroke" data-item-order="-18542" transform="translate(15, 307)"><g id="sy_2_cu_bar_1d14lmg3yf2fc-stroke" fill="none" stroke-linecap="round" stroke-linejoin="round" stroke-miterlimit="4" stroke="#ffffff" stroke-width="2" stroke-opacity="1"><g><path d="M 28 10L 157.600006 10C 157.600006 10 175.600006 10 175.600006 28L 175.600006 28C 175.600006 28 175.600006 46 157.600006 46L 28 46C 28 46 10 46 10 28L 10 28C 10 28 10 10 28 10"></path></g></g></g><g id="g-root-sy_2_cu_bubble_1d14lmg3yf2fd-fill" data-item-order="-18540" transform="translate(130.60000610351562, 351)"><g id="sy_2_cu_bubble_1d14lmg3yf2fd-fill-merged" stroke="none" fill="#de8431" fill-opacity="1"><g><path d="M10 26C10 19.373 15.373 14 22 14 H55L59 10L63 14 H96C102.627 14 108 19.373 108 26C108 32.627 102.627 38 96 38 H22C15.373 38 10 32.627 10 26"></path></g></g></g><g id="g-root-sy_2_cu_bubble_1d14lmg3yf2fd-stroke" data-item-order="-18540" transform="translate(130.60000610351562, 351)"><g id="sy_2_cu_bubble_1d14lmg3yf2fd-stroke" fill="none" stroke-linecap="round" stroke-linejoin="round" stroke-miterlimit="4" stroke="#ffffff" stroke-width="2" stroke-opacity="1"><g><path d="M 10 26C 10 19.3726 15.3726 14 22 14L 55 14L 59 10L 63 14L 96 14C 102.6274 14 108 19.3726 108 26L 108 26C 108 32.6274 102.6274 38 96 38L 22 38C 15.3726 38 10 32.6274 10 26L 10 26Z"></path></g></g></g><g id="g-root-sy_3_cu_bar_18lb3i03yf37m-fill" data-item-order="-18536" transform="translate(15, 427)"><g id="sy_3_cu_bar_18lb3i03yf37m-fill-merged" stroke="none" fill="#3cc583" fill-opacity="1"><g><path d="M28 10 H282.4C282.4 10 300.4 10 300.4 28C300.4 28 300.4 46 282.4 46 H28C28 46 10 46 10 28C10 28 10 10 28 10"></path></g></g></g><g id="g-root-sy_3_cu_bar_18lb3i03yf37m-stroke" data-item-order="-18536" transform="translate(15, 427)"><g id="sy_3_cu_bar_18lb3i03yf37m-stroke" fill="none" stroke-linecap="round" stroke-linejoin="round" stroke-miterlimit="4" stroke="#ffffff" stroke-width="2" stroke-opacity="1"><g><path d="M 28 10L 282.399994 10C 282.399994 10 300.399994 10 300.399994 28L 300.399994 28C 300.399994 28 300.399994 46 282.399994 46L 28 46C 28 46 10 46 10 28L 10 28C 10 28 10 10 28 10"></path></g></g></g><g id="g-root-sy_3_cu_bubble_18lb3i03yf37n-fill" data-item-order="-18534" transform="translate(255.4000244140625, 471)"><g id="sy_3_cu_bubble_18lb3i03yf37n-fill-merged" stroke="none" fill="#3cc583" fill-opacity="1"><g><path d="M10 26C10 19.373 15.373 14 22 14 H55L59 10L63 14 H96C102.627 14 108 19.373 108 26C108 32.627 102.627 38 96 38 H22C15.373 38 10 32.627 10 26"></path></g></g></g><g id="g-root-sy_3_cu_bubble_18lb3i03yf37n-stroke" data-item-order="-18534" transform="translate(255.4000244140625, 471)"><g id="sy_3_cu_bubble_18lb3i03yf37n-stroke" fill="none" stroke-linecap="round" stroke-linejoin="round" stroke-miterlimit="4" stroke="#ffffff" stroke-width="2" stroke-opacity="1"><g><path d="M 9.99997 26C 9.99997 19.3726 15.37257 14 21.99997 14L 54.99997 14L 58.99997 10L 62.99997 14L 95.99997 14C 102.62737 14 107.99997 19.3726 107.99997 26L 107.99997 26C 107.99997 32.6274 102.62737 38 95.99997 38L 21.99997 38C 15.37257 38 9.99997 32.6274 9.99997 26L 9.99997 26Z"></path></g></g></g><g id="g-root-tx_grade1le_4o6ik83yf1n2-fill" data-item-order="0" transform="translate(30.17578125, 38)"><g id="tx_grade1le_4o6ik83yf1n2-fill-merged" stroke="none" fill="#484848" fill-opacity="1"><g><text style="font: bold 36px Roboto, sans-serif; white-space: pre;" transform="translate(251.82421875, 54)" font-weight="bold" font-size="36px" font-family="Roboto, sans-serif"><tspan x="-239.82" y="-1" dominant-baseline="ideographic">Grade 1 Learners Benchmark </tspan><tspan x="-110.63" y="43" dominant-baseline="ideographic">Achievement</tspan></text></g></g></g><g id="g-root-tx_grade1le_4o6ik83yf1n2-stroke" data-item-order="0" transform="translate(30.17578125, 38)"></g><g id="g-root-tx_starting_zqakc83yf0um-fill" data-item-order="0" transform="translate(14, 150)"><g id="tx_starting_zqakc83yf0um-fill-merged" stroke="none" fill="#484848" fill-opacity="1"><g><text style="font: 20px Roboto, sans-serif; white-space: pre;" transform="translate(10, 22)" font-size="20px" font-family="Roboto, sans-serif"><tspan x="2" y="11.5" dominant-baseline="ideographic">Start of Year</tspan></text></g></g></g><g id="g-root-tx_starting_zqakc83yf0um-stroke" data-item-order="0" transform="translate(14, 150)"></g><g id="g-root-tx_13_vah27s3yf1mv-fill" data-item-order="0" transform="translate(99.25936889648438, 240)"><g id="tx_13_vah27s3yf1mv-fill-merged" stroke="none" fill="#ffffff" fill-opacity="1"><g><text style="font: 12px Roboto, sans-serif; white-space: pre;" transform="translate(23.140625, 17)" font-size="12px" font-family="Roboto, sans-serif"><tspan x="-11.14" y="7" dominant-baseline="ideographic">13%</tspan></text></g></g></g><g id="g-root-tx_13_vah27s3yf1mv-stroke" data-item-order="0" transform="translate(99.25936889648438, 240)"></g><g id="g-root-tx_starting_qunk3c3yf2f4-fill" data-item-order="0" transform="translate(14, 270)"><g id="tx_starting_qunk3c3yf2f4-fill-merged" stroke="none" fill="#484848" fill-opacity="1"><g><text style="font: 20px Roboto, sans-serif; white-space: pre;" transform="translate(10, 22)" font-size="20px" font-family="Roboto, sans-serif"><tspan x="2" y="11.5" dominant-baseline="ideographic">End-of-Year National Average</tspan></text></g></g></g><g id="g-root-tx_starting_qunk3c3yf2f4-stroke" data-item-order="0" transform="translate(14, 270)"></g><g id="g-root-tx_27_hz0jug3yf37t-fill" data-item-order="0" transform="translate(166.45938110351562, 360)"><g id="tx_27_hz0jug3yf37t-fill-merged" stroke="none" fill="#ffffff" fill-opacity="1"><g><text style="font: 12px Roboto, sans-serif; white-space: pre;" transform="translate(23.140625, 17)" font-size="12px" font-family="Roboto, sans-serif"><tspan x="-11.14" y="7" dominant-baseline="ideographic">27%</tspan></text></g></g></g><g id="g-root-tx_27_hz0jug3yf37t-stroke" data-item-order="0" transform="translate(166.45938110351562, 360)"></g><g id="g-root-tx_endingbe_hz0jug3yf37u-fill" data-item-order="0" transform="translate(14, 390)"><g id="tx_endingbe_hz0jug3yf37u-fill-merged" stroke="none" fill="#484848" fill-opacity="1"><g><text style="font: 20px Roboto, sans-serif; white-space: pre;" transform="translate(10, 22)" font-size="20px" font-family="Roboto, sans-serif"><tspan x="2" y="11.5" dominant-baseline="ideographic">End-of-Year Zazi iZandi</tspan></text></g></g></g><g id="g-root-tx_endingbe_hz0jug3yf37u-stroke" data-item-order="0" transform="translate(14, 390)"></g><g id="g-root-tx_53_hz0jug3yf37v-fill" data-item-order="0" transform="translate(291.2593994140625, 480)"><g id="tx_53_hz0jug3yf37v-fill-merged" stroke="none" fill="#ffffff" fill-opacity="1"><g><text style="font: 12px Roboto, sans-serif; white-space: pre;" transform="translate(23.140625, 17)" font-size="12px" font-family="Roboto, sans-serif"><tspan x="-11.14" y="7" dominant-baseline="ideographic">53%</tspan></text></g></g></g><g id="g-root-tx_53_hz0jug3yf37v-stroke" data-item-order="0" transform="translate(291.2593994140625, 480)"></g></g></g></svg>