<?xml version="1.0" encoding="utf-8" standalone="yes"?>
<!DOCTYPE svg PUBLIC "-//W3C//DTD SVG 1.1//EN" "http://www.w3.org/Graphics/SVG/1.1/DTD/svg11.dtd">
<svg style="fill:none;stroke:none;fill-rule:evenodd;clip-rule:evenodd;stroke-linecap:round;stroke-linejoin:round;stroke-miterlimit:1.5;" version="1.1" xmlns="http://www.w3.org/2000/svg" xmlns:xlink="http://www.w3.org/1999/xlink" width="548" height="624" viewBox="0 0 548 624"><style class="text-font-style fontImports" data-font-family="Arial"></style><style class="text-font-style fontImports" data-font-family="Shantell Sans">@import url(https://fonts.googleapis.com/css2?family=Shantell+Sans:wght@300..800&amp;amp;display=block);</style><style class="text-font-style fontImports" data-font-family="Georgia"></style><g id="items" style="isolation: isolate"><g id="blend" style="mix-blend-mode: normal"><g id="g-root-cp_1_lines-1_1qbc5vc1qtkw0-fill" data-item-order="999727016" transform="translate(62.0390625, 116)"><g id="cp_1_lines-1_1qbc5vc1qtkw0-fill-merged" stroke="none" fill="#e55753" fill-opacity="1"><g><path d="M202 358C202 364.627 196.627 370 190 370 H22C15.373 370 10 364.627 10 358 V22C10 15.373 15.373 10 22 10 H190C196.627 10 202 15.373 202 22 V358"></path></g></g></g><g id="g-root-cp_1_lines-1_1qbc5vc1qtkw0-stroke" data-item-order="999727016" transform="translate(62.0390625, 116)"><g id="cp_1_lines-1_1qbc5vc1qtkw0-stroke" fill="none" stroke-linecap="round" stroke-linejoin="round" stroke-miterlimit="4" stroke="#ffffff" stroke-width="2" stroke-opacity="1"><g><path d="M 190 10C 196.6274 10 202 15.3726 202 22M 10 22L 10 358M 202 358L 202 22M 190 370L 22 370M 22 10L 190 10M 10 22C 10 15.3726 15.3726 10 22 10M 22 370C 15.3726 370 10 364.6274 10 358M 190 370C 196.6274 370 202 364.6274 202 358"></path></g></g></g><g id="g-root-cp_1_donut-unfilled-1_1hgbmpk1qtiix-fill" data-item-order="999727050" transform="translate(91.09521484375, 128)"><g id="cp_1_donut-unfilled-1_1hgbmpk1qtiix-fill-merged" stroke="none" fill="#ffffff" fill-opacity="1"><g><path d="M10 55.495C20.872 28.036 47.41 10 76.944 10 V22C52.333 22 30.217 37.03 21.157 59.913L10 55.495"></path></g></g></g><g id="g-root-cp_1_donut-unfilled-1_1hgbmpk1qtiix-stroke" data-item-order="999727050" transform="translate(91.09521484375, 128)"><g id="cp_1_donut-unfilled-1_1hgbmpk1qtiix-stroke" fill="none" stroke-linecap="round" stroke-linejoin="round" stroke-miterlimit="4" stroke="#ffffff" stroke-width="2" stroke-opacity="1"><g><path d="M 9.999948 55.495C 20.871947 28.035502 47.410402 9.999997 76.943848 10M 76.943848 22C 52.332639 21.999991 30.21725 37.02958 21.157249 59.912503"></path></g></g></g><g id="g-root-cp_1_donut-filled-1_1hgbmpk1qtiiy-fill" data-item-order="999727054" transform="translate(86.03466796875, 127.99998474121094)"><g id="cp_1_donut-filled-1_1hgbmpk1qtiiy-fill-merged" stroke="none" fill="#484848" fill-opacity="1"><g><path d="M82.004 10C113.614 10 141.527 30.617 150.821 60.829C160.116 91.041 148.618 123.783 122.474 141.55C96.331 159.317 61.656 157.955 36.987 138.191C12.318 118.427 3.424 84.885 15.06 55.495L26.218 59.913C16.521 84.404 23.932 112.356 44.49 128.826C65.047 145.296 93.943 146.431 115.729 131.625C137.516 116.819 147.097 89.535 139.352 64.358C131.607 39.181 108.346 22 82.004 22 V10"></path></g></g></g><g id="g-root-cp_1_donut-filled-1_1hgbmpk1qtiiy-stroke" data-item-order="999727054" transform="translate(86.03466796875, 127.99998474121094)"><g id="cp_1_donut-filled-1_1hgbmpk1qtiiy-stroke" fill="none" stroke-linecap="round" stroke-linejoin="round" stroke-miterlimit="4" stroke="#484848" stroke-width="2" stroke-opacity="1"><g><path d="M 82.004395 10.000015C 113.614014 10.000018 141.526993 30.616869 150.82149 60.829124C 160.115987 91.041379 148.618082 123.782594 122.474375 141.549828C 96.330668 159.317062 61.655997 157.954679 36.986896 138.190988C 12.317796 118.427296 3.424204 84.884891 15.060495 55.495016L 26.217795 59.912515C 16.520888 84.404079 23.932214 112.356081 44.489795 128.825824C 65.047376 145.295567 93.942934 146.430889 115.729357 131.624864C 137.51578 116.81884 147.097371 89.534499 139.351963 64.35762C 131.606555 39.180741 108.345746 22.000026 82.004398 22.000016Z"></path></g></g></g><g id="g-root-cp_2_lines-2_1d0i4l41qtjb7-fill" data-item-order="999727076" transform="translate(278.0390625, 116)"><g id="cp_2_lines-2_1d0i4l41qtjb7-fill-merged" stroke="none" fill="#f99539" fill-opacity="1"><g><path d="M202 358C202 364.627 196.627 370 190 370 H22C15.373 370 10 364.627 10 358 V22C10 15.373 15.373 10 22 10 H190C196.627 10 202 15.373 202 22 V358"></path></g></g></g><g id="g-root-cp_2_lines-2_1d0i4l41qtjb7-stroke" data-item-order="999727076" transform="translate(278.0390625, 116)"><g id="cp_2_lines-2_1d0i4l41qtjb7-stroke" fill="none" stroke-linecap="round" stroke-linejoin="round" stroke-miterlimit="4" stroke="#ffffff" stroke-width="2" stroke-opacity="1"><g><path d="M 190 10C 196.6274 10 202 15.3726 202 22M 10 22L 10 358M 202 358L 202 22M 190 370L 22 370M 22 10L 190 10M 10 22C 10 15.3726 15.3726 10 22 10M 22 370C 15.3726 370 10 364.6274 10 358M 190 370C 196.6274 370 202 364.6274 202 358"></path></g></g></g><g id="g-root-cp_2_donut-unfilled-2_144v4c81qtk3w-fill" data-item-order="999727110" transform="translate(302.03802490234375, 128)"><g id="cp_2_donut-unfilled-2_144v4c81qtk3w-fill-merged" stroke="none" fill="#ffffff" fill-opacity="1"><g><path d="M153.433 91.024C148.597 129.311 114.433 156.977 75.976 153.747C37.52 150.518 8.448 117.543 10.064 78.985C11.68 40.427 43.409 10 82.001 10 V22C49.841 22 23.4 47.356 22.054 79.487C20.707 111.619 44.933 139.099 76.98 141.79C109.027 144.481 137.497 121.426 141.528 89.52L153.433 91.024"></path></g></g></g><g id="g-root-cp_2_donut-unfilled-2_144v4c81qtk3w-stroke" data-item-order="999727110" transform="translate(302.03802490234375, 128)"><g id="cp_2_donut-unfilled-2_144v4c81qtk3w-stroke" fill="none" stroke-linecap="round" stroke-linejoin="round" stroke-miterlimit="4" stroke="#ffffff" stroke-width="2" stroke-opacity="1"><g><path d="M 153.433338 91.024C 148.596506 129.311439 114.432685 156.976756 75.976286 153.747487C 37.519886 150.518217 8.448196 117.542874 10.064236 78.984979C 11.680277 40.427084 43.409292 10.000023 82.001038 10M 82.001038 22C 49.841252 22.000013 23.400399 47.355893 22.053693 79.487473C 20.706987 111.619053 44.933393 139.098511 76.980394 141.789572C 109.027395 144.480634 137.497249 121.426204 141.527944 89.520004"></path></g></g></g><g id="g-root-cp_2_donut-filled-2_144v4c81qtk3x-fill" data-item-order="999727114" transform="translate(374.0390625, 128)"><g id="cp_2_donut-filled-2_144v4c81qtk3x-fill-merged" stroke="none" fill="#484848" fill-opacity="1"><g><path d="M10 10C30.668 10 50.34 18.882 64.008 34.386C77.676 49.889 84.023 70.519 81.432 91.024L69.527 89.52C71.686 72.432 66.397 55.241 55.007 42.321C43.617 29.402 27.224 22 10 22 V10"></path></g></g></g><g id="g-root-cp_2_donut-filled-2_144v4c81qtk3x-stroke" data-item-order="999727114" transform="translate(374.0390625, 128)"><g id="cp_2_donut-filled-2_144v4c81qtk3x-stroke" fill="none" stroke-linecap="round" stroke-linejoin="round" stroke-miterlimit="4" stroke="#484848" stroke-width="2" stroke-opacity="1"><g><path d="M 10 10C 30.668269 9.999988 50.339854 18.882039 64.008029 34.385533C 77.676204 49.889026 84.022724 70.518708 81.432301 91.024001L 69.5269 89.52C 71.685593 72.432262 66.396829 55.240862 55.006686 42.321284C 43.616543 29.401706 27.223559 21.999994 10.000004 22.000001Z"></path></g></g></g><g id="g-root-tx_southafr_144v4c81qtk3y-fill" data-item-order="1000000000" transform="translate(29.21484375, 38)"><g id="tx_southafr_144v4c81qtk3y-fill-merged" stroke="none" fill="#484848" fill-opacity="1"><g><text style="font: bold 25px Georgia, serif; white-space: pre;" transform="translate(246.82421875, 25)" font-weight="bold" font-size="25px" font-family="Georgia, serif"><tspan x="-234.82" y="14" dominant-baseline="ideographic">South African Children Cannot Read</tspan></text></g></g></g><g id="g-root-tx_southafr_144v4c81qtk3y-stroke" data-item-order="1000000000" transform="translate(29.21484375, 38)"></g><g id="g-root-tx_81_qu13201qtij3-fill" data-item-order="1000000000" transform="translate(129.65625, 185)"><g id="tx_81_qu13201qtij3-fill-merged" stroke="none" fill="#484848" fill-opacity="1"><g><text style="font: bold 25px &quot;Shantell Sans&quot;, cursive; white-space: pre;" transform="translate(38.3828125, 25)" font-weight="bold" font-size="25px" font-family="'Shantell Sans', cursive"><tspan x="-26.38" y="16.5" dominant-baseline="ideographic">81%</tspan></text></g></g></g><g id="g-root-tx_81_qu13201qtij3-stroke" data-item-order="1000000000" transform="translate(129.65625, 185)"></g><g id="g-root-tx_27_hye2t41qtk3m-fill" data-item-order="1000000000" transform="translate(342.91796875, 185)"><g id="tx_27_hye2t41qtk3m-fill-merged" stroke="none" fill="#484848" fill-opacity="1"><g><text style="font: bold 25px &quot;Shantell Sans&quot;, cursive; white-space: pre;" transform="translate(41.12109375, 25)" font-weight="bold" font-size="25px" font-family="'Shantell Sans', cursive"><tspan x="-29.12" y="16.5" dominant-baseline="ideographic">27%</tspan></text></g></g></g><g id="g-root-tx_27_hye2t41qtk3m-stroke" data-item-order="1000000000" transform="translate(342.91796875, 185)"></g><g id="g-root-tx_children_v9ul6g1qtiio-fill" data-item-order="1000000000" transform="translate(88.0078125, 284)"><g id="tx_children_v9ul6g1qtiio-fill-merged" stroke="none" fill="#484848" fill-opacity="1"><g><text style="font: bold 20px Georgia, serif; white-space: pre;" transform="translate(80.03125, 46)" font-weight="bold" font-size="20px" font-family="Georgia, serif"><tspan x="-47.35" y="-12.5" dominant-baseline="ideographic">Children </tspan><tspan x="-68.03" y="11.5" dominant-baseline="ideographic">Cannot Read </tspan><tspan x="-50.1" y="35.5" dominant-baseline="ideographic">by Age 10</tspan></text></g></g></g><g id="g-root-tx_children_v9ul6g1qtiio-stroke" data-item-order="1000000000" transform="translate(88.0078125, 284)"></g><g id="g-root-tx_grade1le_hye2t41qtk3n-fill" data-item-order="1000000000" transform="translate(312.10546875, 284)"><g id="tx_grade1le_hye2t41qtk3n-fill-merged" stroke="none" fill="#484848" fill-opacity="1"><g><text style="font: bold 20px Georgia, serif; white-space: pre;" transform="translate(71.93359375, 58)" font-weight="bold" font-size="20px" font-family="Georgia, serif"><tspan x="-39.01" y="-24.5" dominant-baseline="ideographic">Grade 1 </tspan><tspan x="-46.68" y="-0.5" dominant-baseline="ideographic">Learners </tspan><tspan x="-25.64" y="23.5" dominant-baseline="ideographic">Meet </tspan><tspan x="-59.93" y="47.5" dominant-baseline="ideographic">Benchmark</tspan></text></g></g></g><g id="g-root-tx_grade1le_hye2t41qtk3n-stroke" data-item-order="1000000000" transform="translate(312.10546875, 284)"></g><g id="g-root-tx_mostsout_me7kxk1qtjbd-fill" data-item-order="1000000000" transform="translate(91.00390625, 368)"><g id="tx_mostsout_me7kxk1qtjbd-fill-merged" stroke="none" fill="#484848" fill-opacity="1"><g><text style="font: 15px Arial, Helvetica, sans-serif; white-space: pre;" transform="translate(77.03515625, 46)" font-size="15px" font-family="Arial, Helvetica, sans-serif"><tspan x="-65.04" y="-19" dominant-baseline="ideographic">Most South African </tspan><tspan x="-57.11" y="-1" dominant-baseline="ideographic">children struggle </tspan><tspan x="-42.53" y="17" dominant-baseline="ideographic">with reading </tspan><tspan x="-55.45" y="35" dominant-baseline="ideographic">comprehension.</tspan></text></g></g></g><g id="g-root-tx_mostsout_me7kxk1qtjbd-stroke" data-item-order="1000000000" transform="translate(91.00390625, 368)"></g><g id="g-root-tx_easternc_92r2k81qtkwc-fill" data-item-order="1000000000" transform="translate(302.14453125, 392)"><g id="tx_easternc_92r2k81qtkwc-fill-merged" stroke="none" fill="#484848" fill-opacity="1"><g><text style="font: 15px Arial, Helvetica, sans-serif; white-space: pre;" transform="translate(81.89453125, 46)" font-size="15px" font-family="Arial, Helvetica, sans-serif"><tspan x="-69.89" y="-19" dominant-baseline="ideographic">Eastern Cape Grade </tspan><tspan x="-64.89" y="-1" dominant-baseline="ideographic">1 learners fall short </tspan><tspan x="-64.48" y="17" dominant-baseline="ideographic">of letter-knowledge </tspan><tspan x="-21.12" y="35" dominant-baseline="ideographic">goals.</tspan></text></g></g></g><g id="g-root-tx_easternc_92r2k81qtkwc-stroke" data-item-order="1000000000" transform="translate(302.14453125, 392)"></g><g id="g-root-tx_readingp_92r2k81qtkwd-fill" data-item-order="1000000000" transform="translate(16.0390625, 500)"><g id="tx_readingp_92r2k81qtkwd-fill-merged" stroke="none" fill="#2c2c2c" fill-opacity="1"><g><text style="font: 20px Arial, Helvetica, sans-serif; white-space: pre;" transform="translate(256, 34)" font-size="20px" font-family="Arial, Helvetica, sans-serif"><tspan x="-230.16" y="-1" dominant-baseline="ideographic">Children cannot read because they are not learning </tspan><tspan x="-85.05" y="23" dominant-baseline="ideographic">their letter sounds.</tspan></text></g></g></g><g id="g-root-tx_readingp_92r2k81qtkwd-stroke" data-item-order="1000000000" transform="translate(16.0390625, 500)"></g></g></g></svg>