<?xml version="1.0" encoding="utf-8" standalone="yes"?>
<!DOCTYPE svg PUBLIC "-//W3C//DTD SVG 1.1//EN" "http://www.w3.org/Graphics/SVG/1.1/DTD/svg11.dtd">
<svg style="fill:none;stroke:none;fill-rule:evenodd;clip-rule:evenodd;stroke-linecap:round;stroke-linejoin:round;stroke-miterlimit:1.5;" version="1.1" xmlns="http://www.w3.org/2000/svg" xmlns:xlink="http://www.w3.org/1999/xlink" width="499" height="366" viewBox="0 0 499 366"><style class="text-font-style fontImports" data-font-family="Arial"></style><style class="text-font-style fontImports" data-font-family="Shantell Sans">@import url(https://fonts.googleapis.com/css2?family=Shantell+Sans:wght@300..800&amp;amp;display=block);</style><style class="text-font-style fontImports" data-font-family="Georgia"></style><g id="items" style="isolation: isolate"><g id="blend" style="mix-blend-mode: normal"><g id="g-root-sy_0_cu_bar_back_htea4o3elibo-fill" data-item-order="-27444" transform="translate(263.9290771484375, 89.1551513671875)"></g><g id="g-root-sy_0_cu_bar_back_htea4o3elibo-stroke" data-item-order="-27444" transform="translate(263.9290771484375, 89.1551513671875)"><g id="sy_0_cu_bar_back_htea4o3elibo-stroke" fill="none" stroke-linecap="round" stroke-linejoin="round" stroke-miterlimit="4" stroke="#484848" stroke-width="2" stroke-opacity="1"><g><path d="M 23.619955 9.999971C 47.578287 22.207158 64.244644 45.146249 68.451036 71.704172C 72.657429 98.262095 63.895412 125.228674 44.881958 144.241974L 23.668955 123.028971C 35.891667 110.806055 41.524185 93.470452 38.819968 76.39762C 36.115751 59.324788 25.401665 44.578373 9.999956 36.730971L 23.619955 9.999971ZM 23.584955 10.044971C 46.884955 23.544971 64.784955 45.044971 68.484955 71.744971C 72.084955 98.344971 63.884955 125.244971 44.884955 144.244971C 37.884955 137.044971 31.084955 129.744971 23.684955 123.044971C 35.884955 110.844971 41.684955 93.444971 38.784955 76.444971C 35.984955 59.344971 25.584955 44.144971 9.984955 36.744971C 14.384955 27.744971 18.084955 18.344971 23.584955 10.044971M 23.584955 10.044971C 33.284955 11.544971 42.084955 18.944971 46.684955 27.344971C 50.984955 35.044971 56.684955 41.644971 61.484955 49.044971C 65.784955 55.644971 64.284955 64.844971 68.484955 71.744971C 71.184955 76.344971 69.184955 82.344971 69.484955 87.644971C 69.684955 92.844971 69.684955 98.444971 67.484955 103.144971C 64.984955 108.344971 62.884955 113.744971 61.984955 119.544971C 61.284955 124.344971 58.384955 128.944971 54.784955 132.344971C 51.084955 135.844971 47.084955 139.544971 44.884955 144.244971C 40.884955 141.744971 37.984955 137.944971 34.984955 134.344971C 31.584955 130.244971 27.284955 126.944971 23.684955 123.044971C 28.884955 115.844971 34.084955 109.044971 36.984955 100.944971C 39.884955 93.244971 40.384955 84.644971 38.784955 76.444971C 37.184955 68.144971 33.084955 60.944971 29.484955 53.544971C 25.684955 45.844971 18.284955 39.644971 9.984955 36.744971C 13.584955 27.344971 20.084955 19.344971 23.584955 10.044971"></path></g></g></g><g id="g-root-sy_0_cu_needle_htea4o3elibp-fill" data-item-order="-27442" transform="translate(229.91204833984375, 127.5699462890625)"></g><g id="g-root-sy_0_cu_needle_htea4o3elibp-stroke" data-item-order="-27442" transform="translate(229.91204833984375, 127.5699462890625)"><g id="sy_0_cu_needle_htea4o3elibp-stroke" fill="none" stroke-linecap="round" stroke-linejoin="round" stroke-miterlimit="4" stroke="#484848" stroke-width="4" stroke-opacity="1"><g><path d="M 27.966545 50.743088C 25.584595 55.417923 19.863915 57.276688 15.189072 54.894745C 10.514229 52.512787 8.655472 46.792114 11.037423 42.117264C 11.181336 41.834824 11.337426 41.562607 11.504799 41.301087L 35.466233 10.776024C 36.820382 9.050972 39.562897 10.448357 38.96325 12.557839L 28.352127 49.885239C 28.23893 50.174362 28.110459 50.460633 27.966545 50.743088ZM 15.90992 44.596115C 16.921135 42.611481 19.349846 41.822281 21.334565 42.833542C 23.319275 43.844803 24.108353 46.27356 23.097138 48.258179C 22.085869 50.242905 19.657212 51.032013 17.672493 50.020752C 15.687775 49.009491 14.898659 46.580826 15.90992 44.596115ZM 28.001984 50.730176C 26.901984 55.830176 20.201984 56.530176 15.201984 54.930176C 10.201984 53.230176 8.301984 46.630176 11.001984 42.130176C 11.201984 41.830176 11.401984 41.630176 11.501984 41.330176C 18.001984 30.130176 26.601984 20.130176 35.501984 10.730176C 37.001984 9.230176 38.801984 10.330176 39.001984 12.530176C 39.701984 25.430176 31.701984 37.430176 28.401984 49.930176C 28.201984 50.130176 28.001984 50.430176 28.001984 50.730176M 15.901984 44.630176C 16.701984 42.530176 19.601984 41.430176 21.301984 42.830176C 23.001984 44.230176 24.601984 46.530176 23.101984 48.230176C 21.601984 49.930176 19.301984 51.630176 17.701984 50.030176C 16.101984 48.430176 15.701984 46.830176 15.901984 44.630176M 28.001984 50.730176C 26.301984 55.730176 18.901984 58.530176 15.201984 54.930176C 11.401984 51.230176 8.501984 46.730176 11.001984 42.130176C 11.201984 41.830176 11.301984 41.530176 11.501984 41.330176C 16.601984 38.230176 18.401984 31.530176 22.501984 27.230176C 27.401984 22.230176 31.301984 16.430176 35.501984 10.730176C 36.801984 9.030176 39.801984 10.530176 39.001984 12.530176C 33.801984 24.430176 29.401984 37.030176 28.401984 49.930176C 28.201984 50.130176 28.101984 50.430176 28.001984 50.730176M 15.901984 44.630176C 16.801984 42.530176 19.201984 42.030176 21.301984 42.830176C 23.401984 43.630176 24.201984 46.330176 23.101984 48.230176C 22.001984 50.230176 19.801984 50.630176 17.701984 50.030176C 15.501984 49.430176 15.401984 46.830176 15.901984 44.630176"></path></g></g></g><g id="g-root-sy_1_gauge-unfilled-1_htea4o3elibq-fill" data-item-order="-27439" transform="translate(155.41213989257812, 79.991943359375)"><g id="sy_1_gauge-unfilled-1_htea4o3elibq-fill-merged" stroke="none" fill="#e55753" fill-opacity="1"><g><path d="M34.605 153.405C5.387 124.188 1.757 78.062 26.043 44.634C50.33 11.206 95.321 0.404 132.137 19.163L118.517 45.894C94.85 33.836 65.928 40.78 50.315 62.269C34.703 83.758 37.036 113.41 55.818 132.192L34.605 153.405"></path></g></g></g><g id="g-root-sy_1_gauge-unfilled-1_htea4o3elibq-stroke" data-item-order="-27439" transform="translate(155.41213989257812, 79.991943359375)"><g id="sy_1_gauge-unfilled-1_htea4o3elibq-stroke" fill="none" stroke-linecap="round" stroke-linejoin="round" stroke-miterlimit="4" stroke="#484848" stroke-width="4" stroke-opacity="1"><g><path d="M 34.604892 153.405179C 5.387311 124.188399 1.756686 78.061718 26.043497 44.633611C 50.330308 11.205505 95.321258 0.404277 132.136894 19.163179L 118.516892 45.894179C 94.849871 33.835697 65.927874 40.779514 50.315203 62.268568C 34.702533 83.757622 37.036035 113.409828 55.817892 132.19218L 34.604892 153.405179ZM 34.601892 153.408179C 21.401892 137.908179 12.201892 120.408179 10.301892 101.308179C 8.301892 81.808179 14.101892 61.808179 26.001892 44.608179C 38.801892 26.308179 58.301892 15.008179 79.001892 11.308179C 96.601892 8.208179 114.501892 12.108179 132.101892 19.208179C 128.001892 28.308179 123.201892 37.008179 118.501892 45.908179C 95.601892 32.508179 64.701892 39.908179 50.301892 62.308179C 42.501892 74.408179 39.201892 87.908179 40.501892 101.408179C 41.601892 112.808179 47.001892 123.908179 55.801892 132.208179C 49.001892 139.508179 42.001892 146.608179 34.601892 153.408179M 34.601892 153.408179C 29.601892 145.908179 20.601892 140.608179 19.101892 132.108179C 17.701892 124.508179 10.601892 118.008179 11.601892 110.508179C 12.701892 102.608179 8.101892 94.408179 10.301892 86.708179C 12.501892 79.108179 15.401892 71.608179 15.701892 63.508179C 16.001892 56.408179 23.301892 51.408179 26.001892 44.608179C 29.101892 37.008179 36.501892 32.108179 42.901892 27.308179C 49.801892 22.208179 57.101892 17.608179 65.201892 15.108179C 72.901892 12.708179 80.901892 8.208179 88.801892 10.208179C 95.601892 11.908179 103.201892 9.308179 110.001892 11.508179C 117.301892 13.908179 124.201892 17.808179 132.101892 19.208179C 129.201892 28.708179 120.501892 36.108179 118.501892 45.908179C 114.501892 41.408179 107.301892 42.408179 101.801892 40.608179C 95.401892 38.508179 87.701892 38.008179 82.001892 41.408179C 76.901892 44.408179 69.501892 43.408179 65.701892 48.008179C 61.301892 53.308179 56.301892 58.208179 50.301892 62.308179C 42.601892 67.508179 44.501892 79.308179 40.401892 87.208179C 36.601892 94.708179 39.901892 104.208179 43.101892 112.108179C 46.001892 119.308179 48.201892 128.908179 55.801892 132.208179C 49.501892 139.908179 39.001892 144.408179 34.601892 153.408179"></path></g></g></g><g id="g-root-tx_southafr_2qqq03elhj5-fill" data-item-order="0" transform="translate(11.671875, 38.0001220703125)"><g id="tx_southafr_2qqq03elhj5-fill-merged" stroke="none" fill="#484848" fill-opacity="1"><g><text style="font: bold 25px Georgia, serif; white-space: pre;" transform="translate(237.7421875, 25)" font-weight="bold" font-size="25px" font-family="Georgia, serif"><tspan x="-225.74" y="14" dominant-baseline="ideographic">South Africa Youth Unemployment</tspan></text></g></g></g><g id="g-root-tx_southafr_2qqq03elhj5-stroke" data-item-order="0" transform="translate(11.671875, 38.0001220703125)"></g><g id="g-root-tx_60_8xr9vs3elj4f-fill" data-item-order="0" transform="translate(208.6953125, 203.000244140625)"><g id="tx_60_8xr9vs3elj4f-fill-merged" stroke="none" fill="#484848" fill-opacity="1"><g><text style="font: 25px &quot;Shantell Sans&quot;, cursive; white-space: pre;" transform="translate(40.71875, 25)" font-size="25px" font-family="'Shantell Sans', cursive"><tspan x="-28.72" y="16.5" dominant-baseline="ideographic">60%</tspan></text></g></g></g><g id="g-root-tx_60_8xr9vs3elj4f-stroke" data-item-order="0" transform="translate(208.6953125, 203.000244140625)"></g><g id="g-root-tx_youthune_4ik8ug3elgqw-fill" data-item-order="0" transform="translate(139.38671875, 260.000244140625)"><g id="tx_youthune_4ik8ug3elgqw-fill-merged" stroke="none" fill="#484848" fill-opacity="1"><g><text style="font: 20px Arial, Helvetica, sans-serif; white-space: pre;" transform="translate(110.02734375, 34)" font-size="20px" font-family="Arial, Helvetica, sans-serif"><tspan x="-98.03" y="-1" dominant-baseline="ideographic">Youth Unemployment </tspan><tspan x="-23.9" y="23" dominant-baseline="ideographic">Rate</tspan></text></g></g></g><g id="g-root-tx_youthune_4ik8ug3elgqw-stroke" data-item-order="0" transform="translate(139.38671875, 260.000244140625)"></g></g></g></svg>